<svg xmlns="http://www.w3.org/2000/svg" viewBox="0 0 313.5 546.5"><defs><style>.cls-1{fill:#5f6bb2;}.cls-2{fill:#c3daf1;}.cls-3{fill:#fff;}</style></defs><g id="Layer_2" data-name="Layer 2"><g id="Layer_1-2" data-name="Layer 1"><path class="cls-1" d="M215.75,302V516.38a30.13,30.13,0,0,1-30.13,30.12H127.88a30.13,30.13,0,0,1-30.13-30.12V302a157.35,157.35,0,0,0,118,0Z"/><path class="cls-2" d="M156.75,0A156.78,156.78,0,1,0,313.5,156.75,156.75,156.75,0,0,0,156.75,0Zm59,267.54a125.51,125.51,0,1,1,66.5-110.79A124.93,124.93,0,0,1,215.75,267.54Z"/><path class="cls-3" d="M122.7,126c.26-.7.53-1.39.82-2.08l-1.77,4.18A59.77,59.77,0,0,1,129.44,115l-2.73,3.55a62.25,62.25,0,0,1,11.06-11l-3.54,2.73a62.23,62.23,0,0,1,13.48-7.85l-4.18,1.77a57.07,57.07,0,0,1,13.86-3.84l-4.65.63a46.86,46.86,0,0,1,12.52-.06l-4.65-.62a38.49,38.49,0,0,1,9.53,2.61L166,101.17a33.81,33.81,0,0,1,7,4.12l-3.54-2.73a33.24,33.24,0,0,1,5.68,5.69l-2.73-3.54A30.33,30.33,0,0,1,176,111l-1.76-4.18a26.37,26.37,0,0,1,1.83,6.58l-.62-4.65a23.78,23.78,0,0,1,0,6l.62-4.65a17.17,17.17,0,0,1-1,3.78l1.77-4.18a15.47,15.47,0,0,1-1.73,3l2.74-3.54a44.82,44.82,0,0,1-8,7.41l3.54-2.74a81.73,81.73,0,0,1-13.82,8.66c-4.16,2.06-8.63,3.6-12.48,6.23a52.38,52.38,0,0,0-5.79,4.49,36.2,36.2,0,0,0-4.75,5.75,32,32,0,0,0-3.3,6.84,20,20,0,0,0-1.18,4.1,143.47,143.47,0,0,0-1.71,21.72q-.25,10.43.2,20.86a18.33,18.33,0,0,0,5.12,12.37,13.15,13.15,0,0,0,5.63,3.62,13.18,13.18,0,0,0,6.75,1.51c4.52-.21,9.22-1.69,12.37-5.13s5.33-7.71,5.13-12.37q-.41-9.32-.25-18.63a169.52,169.52,0,0,1,.94-18l-.63,4.65a21.72,21.72,0,0,1,1.38-5.38l-1.76,4.18a14.82,14.82,0,0,1,1.75-2.94l-2.74,3.54a18.39,18.39,0,0,1,3-3l-3.54,2.74c4.47-3.37,9.93-5.09,14.86-7.65a100.8,100.8,0,0,0,19-13.18,37.45,37.45,0,0,0,8.85-10.3,30.93,30.93,0,0,0,3.18-8.28,42,42,0,0,0,1-9,40.1,40.1,0,0,0-2-12.09,45,45,0,0,0-5.23-10.92,49.55,49.55,0,0,0-17.76-16.31,57.48,57.48,0,0,0-26-6.36A74.58,74.58,0,0,0,145.93,67a55.55,55.55,0,0,0-8.93,2.4,77.83,77.83,0,0,0-34.81,24.14,87.42,87.42,0,0,0-7.71,11A86.57,86.57,0,0,0,89,116.74a13.23,13.23,0,0,0-.32,7,13.07,13.07,0,0,0,2.08,6.51c2.12,3.63,6.29,7.09,10.46,8,4.48,1,9.51.8,13.48-1.76l3.55-2.74a17.59,17.59,0,0,0,4.5-7.72Z"/><path class="cls-3" d="M149,248h1a13.18,13.18,0,0,0,6.75-1.51,15.69,15.69,0,0,0,9.25-9.25,13.12,13.12,0,0,0,1.5-6.74l-.62-4.65a17.4,17.4,0,0,0-4.5-7.72l-3.54-2.74A17.48,17.48,0,0,0,150,213h-1a13.17,13.17,0,0,0-6.74,1.51,15.76,15.76,0,0,0-9.25,9.25,13.23,13.23,0,0,0-1.51,6.74l.63,4.65a17.49,17.49,0,0,0,4.5,7.73l3.54,2.73A17.47,17.47,0,0,0,149,248Z"/></g></g></svg>