<svg xmlns="http://www.w3.org/2000/svg" viewBox="0 0 313.5 546.5"><defs><style>.cls-1{fill:#5f6bb2;}.cls-2{fill:#c3daf1;}</style></defs><g id="Layer_2" data-name="Layer 2"><g id="Layer_1-2" data-name="Layer 1"><path class="cls-1" d="M215.75,302V516.38a30.13,30.13,0,0,1-30.13,30.12H127.88a30.13,30.13,0,0,1-30.13-30.12V302a157.35,157.35,0,0,0,118,0Z"/><path class="cls-2" d="M156.75,0A156.78,156.78,0,1,0,313.5,156.75,156.75,156.75,0,0,0,156.75,0Zm59,267.54a125.51,125.51,0,1,1,66.5-110.79A124.93,124.93,0,0,1,215.75,267.54Z"/></g></g></svg>


"data:image/svg+xml,%3csvg xmlns="http://www.w3.org/2000/svg" viewBox="0 0 313.5 546.5"><defs><style>.cls-1{fill:#5f6bb2;}.cls-2{fill:#c3daf1;}</style></defs><g id="Layer_2" data-name="Layer 2"><g id="Layer_1-2" data-name="Layer 1"><path class="cls-1" d="M215.75,302V516.38a30.13,30.13,0,0,1-30.13,30.12H127.88a30.13,30.13,0,0,1-30.13-30.12V302a157.35,157.35,0,0,0,118,0Z"/><path class="cls-2" d="M156.75,0A156.78,156.78,0,1,0,313.5,156.75,156.75,156.75,0,0,0,156.75,0Zm59,267.54a125.51,125.51,0,1,1,66.5-110.79A124.93,124.93,0,0,1,215.75,267.54Z"/></g></g></svg>